PathFileType	4	(X/Y/Z)	T1_P2_NoVision_NoMovement_4_0-734.trc
DataRate	CameraRate	NumFrames	NumMarkers	Units	OrigDataRate	OrigDataStartFrame	OrigNumFrames
60	60	5	27	m	60	550	734
Frame#	Time	RHip			RKnee			RAnkle			RBigToe			RSmallToe			RHeel			LHip			LKnee			LAnkle			LBigToe			LSmallToe			LHeel			Neck			Head			Nose			RShoulder			RElbow			RWrist			RThumb			RIndex			RPinky			LShoulder			LElbow			LWrist			LThumb			LIndex			LPinky		
		X1	Y1	Z1	X2	Y2	Z2	X3	Y3	Z3	X4	Y4	Z4	X5	Y5	Z5	X6	Y6	Z6	X7	Y7	Z7	X8	Y8	Z8	X9	Y9	Z9	X10	Y10	Z10	X11	Y11	Z11	X12	Y12	Z12	X13	Y13	Z13	X14	Y14	Z14	X15	Y15	Z15	X16	Y16	Z16	X17	Y17	Z17	X18	Y18	Z18	X19	Y19	Z19	X20	Y20	Z20	X21	Y21	Z21	X22	Y22	Z22	X23	Y23	Z23	X24	Y24	Z24	X25	Y25	Z25	X26	Y26	Z26	X27	Y27	Z27
551	9.183333333333334	461.4394122092333	3644.408982035196	540.5137015584471	846.2621191495874	3673.205710604004	544.2850453659831	1244.407441310742	3749.69277924252	617.7629843955935	1311.1122337557913	3625.8488941723162	569.7831600292045	1304.1339492009054	3671.9290324633616	519.6873085593767	1280.84716308667	3732.5919975900256	622.0730930502093	458.4831105950732	3548.4963967722615	746.3223975991245	847.1522812046186	3537.350119168444	735.1641411956195	1215.4710106407103	3618.2337239694148	729.7747167168274	1304.8488649513142	3527.47161714759	681.5562519640995	1273.195331390344	3470.83913008126	720.2429949484655	1258.9304649945927	3609.7205581976873	702.5308915481196	-126.66390774360312	3580.317307556936	658.536552783493	-380.15964368273416	3531.5987268323315	632.8806563053084	-235.8218095620843	3486.3789461397882	619.3253120092464	-48.33130333407448	3747.470917382633	551.4677799971852	206.45333624473164	3739.352790991465	484.9582073030336	351.7326536716432	3503.9731036792623	521.7650035463819	409.32121274930773	3493.3006200674276	604.7951856818368	430.8797438650686	3510.1451003892953	623.8100566669194	456.31688451605555	3500.128136263009	618.8848597450643	-36.2477877797758	3584.7451545960694	841.2271582921949	219.5583824507352	3501.5223539779918	816.9795972832352	365.72931606490425	3450.4129902523905	645.2625467795219	420.79517462329056	3471.720702167884	554.6694139642154	444.42208168024524	3519.8698734545683	583.8859292964762	453.78502142318985	3454.0850937923565	603.8403058658993
552	9.2	466.06361868056	3645.985625735305	541.3789937819731	856.7823829139971	3692.2762803765563	559.0038587847649	1244.1383981336467	3749.7034381005824	617.7956027718699	1305.9515618703947	3623.977935688957	568.0852555870777	1299.7697647231948	3682.157879666115	530.4180533819217	1277.914966032044	3737.9420920116004	625.1361748342716	458.6458901319426	3548.637094068639	746.3768158424551	846.9925286668243	3536.904778315628	734.9381069075943	1221.457190329018	3619.990985916725	731.4866758659489	1297.581876024546	3507.613141884267	675.8091308839296	1265.8420185417524	3451.1350159934445	713.802316851875	1256.0895290738629	3615.3825962878027	706.1424001570581	-126.71492362692531	3580.1915179958046	658.5106591559495	-380.23231845607756	3531.7158747312383	632.8606000552774	-235.95426168759383	3486.614377602385	619.3868382908141	-48.35616556012458	3747.481396456454	551.4613023708089	206.47138377426086	3739.2409586932913	484.881566851373	348.9110469586876	3489.049559049755	509.71939979095725	415.97063314951504	3483.5189473163305	594.0483502976808	434.99301576652607	3505.8657224235285	621.6712303816298	456.7192009981692	3503.5455730367926	614.5463628089864	-36.21608558842997	3584.6725149796025	841.3000022024902	221.95844234726576	3476.451733534135	807.7194526639779	362.9734986364157	3435.8356894533104	632.3210486443536	414.04527497565323	3460.5372929934483	543.8668175060056	441.56608049613357	3504.622082034043	570.855398347596	450.73922909152697	3441.5967994106177	586.8073326624528
553	9.216666666666667	462.2285006402085	3651.040363989599	544.0357484839434	855.99594565202	3692.970552908452	553.2264545856422	1250.2367655196454	3751.8894414315805	619.4612845504505	1311.2527362448343	3625.7041325759915	569.7995399119843	1304.5728359733969	3672.501559573153	520.0710451500731	1277.9754065472405	3737.7871825391685	625.0553641189086	458.55080218539393	3548.1906865280016	746.330139018762	852.7458381232592	3540.3182219246783	736.0392601910906	1221.3455166387143	3607.5852930391306	722.4888698785888	1310.7929340873281	3531.071941626968	682.0275386746691	1258.9989863262874	3437.360678720217	701.0251936374077	1258.6672065331638	3609.082289512625	702.6255843886875	-123.16551930806868	3567.934547074026	646.6842051546024	-380.15364344450416	3531.396802895757	632.7791028413056	-235.7099836113863	3486.464961608862	619.4275575537089	-48.32216194498689	3747.4640555437886	551.3439194340602	204.19284756704508	3721.32313833904	471.23287715498805	349.01695950623986	3489.908328433346	510.06072889063137	409.7637537378491	3506.339930871092	600.8024602282436	430.82425623872587	3510.4692165493047	623.8048455093772	455.9031266080833	3506.0849707687353	615.0523457241046	-36.32823027293694	3585.0032744498158	841.3225777896844	217.7335171235894	3480.7354496675293	810.1761877473374	362.7850270438717	3435.8979088743986	632.5079836519459	413.92534094731155	3460.2102463436877	542.9600989667389	440.43694288798065	3504.7083933711697	570.3407507187965	450.13243877124614	3442.644278164161	587.8952569651278
554	9.233333333333333	465.0960078014074	3671.222228128247	549.0394481595665	856.0052936119271	3693.187743418625	553.3409857273169	1257.8384096829395	3774.1146225025936	625.2557869932151	1310.711003290705	3625.2377792040834	569.3064073273404	1298.0658000529995	3669.0266945277863	517.9188877167137	1286.0048970677651	3760.7756277420044	630.8564035865065	458.421169503124	3548.2318424551922	746.3080624913009	849.5293878396429	3545.6089709257417	738.908596451835	1228.0578059583147	3624.4790599344765	732.6285820167502	1304.921710220595	3527.418890448307	681.1518564320714	1266.2253331077684	3456.540374317105	707.1553514324094	1256.1910402486733	3615.3564694591205	706.4537882430052	-126.57930999301684	3580.4454602472483	658.5102551983927	-380.1784012081549	3531.65914678755	632.8635117309772	-235.66517253715767	3486.6273414734906	619.3956899214406	-48.34128909191691	3747.4459412130527	551.3694027992782	204.23139019327743	3721.3670715218445	471.24632809621073	353.99575122819897	3493.9128420010657	511.3830198211952	422.0999013383962	3519.201710000317	612.7480952558769	431.021719257626	3510.7157485258804	624.075678463474	461.28125596338043	3508.062609791246	616.0768790123564	-36.28373619070315	3584.9285991159954	841.3765072610012	222.1075436413707	3480.2175564493427	804.1470508592555	362.87169586163407	3436.0521344302724	632.4195787325483	414.09614922284396	3460.3425083642164	542.9042030287285	440.8072703684732	3505.0326731095365	570.5749128529361	450.2364118078436	3442.677670426618	587.8730241725829
555	9.25	462.0674304857041	3650.814940716673	543.8791130109914	858.5344946427566	3703.446700197232	557.4404031343586	1255.0711510626898	3780.698321903698	628.481541998456	1310.8749157255224	3625.6396294873202	569.6352429288277	1303.3489779893669	3670.7116990778572	519.0187980726686	1273.6130982018162	3750.3901457365423	631.5283941568688	458.846146554459	3548.7120410726775	746.5508161051313	849.3880135455049	3545.601993956971	738.7644159983801	1221.584234771659	3620.4942509172965	731.5465998506126	1311.5695869931044	3535.066389743079	678.2000521333356	1266.2354690260884	3456.7521482420825	707.100316873133	1253.4851742991677	3621.28790547183	709.5157671277749	-127.2624650844689	3564.1946032443666	645.1331843864916	-380.1812854045592	3531.4709916290485	632.8191596369571	-235.9185649708862	3486.6230768315613	619.4447558814444	-48.286406593639285	3747.346913409631	551.2111400657006	211.58605016186115	3743.1465296503115	486.05923981475416	353.2311021550216	3484.6319131297764	507.3414257184686	418.74978484499655	3502.9061459562026	599.2746284130324	435.0803027480011	3505.8091801238593	621.5842160152835	465.3378303546505	3502.76052042267	613.2522671771135	-36.60024995101645	3564.388912959221	834.7217549365055	217.86688843256238	3480.197987323003	809.9431183562601	363.1913895654285	3436.174889681199	632.4169163523685	417.73335348153444	3454.387052925753	544.5154424542989	441.03483496838	3504.3430391138418	570.414091040076	454.69395924456626	3442.466273530301	593.4618064248572
